<svg width="38" height="38" viewBox="0 0 38 38" xmlns="http://www.w3.org/2000/svg" xmlns:xlink="http://www.w3.org/1999/xlink"><defs><path id="a" d="M0 0h38v38H0z"/></defs><g fill="none" fill-rule="evenodd"><mask id="b" fill="#fff"><use xlink:href="#a"/></mask><path d="M19 0C8.507 0 0 8.507 0 19s8.507 19 19 19c10.494 0 19-8.507 19-19S29.494 0 19 0z" fill="#109D84" mask="url(#b)"/><path d="M7.59 15.792l16.07 10.477c.149.11.236.283.236.469l-.079 5.095c0 .547-.66.822-1.047.436L7.558 18.25a1.12 1.12 0 0 1-.33-.793v-1.483c0-.186.212-.294.362-.182zm8.73-10.065l15.29 14.154c.215.21.336.5.336.8v1.54a.227.227 0 0 1-.361.184l-11.577-7.196a.219.219 0 0 0-.347.177v.771c0 .255.103.499.285.677l3.579 3.504c.238.233.371.551.371.885V24.2c0 .172-.204.26-.33.143L17.7 18.871l-2.034-1.92a1.235 1.235 0 0 1-.389-.9V6.168c0-.544.655-.82 1.044-.44z" fill="#FFF" mask="url(#b)"/></g></svg>
